<?xml version="1.0" encoding="UTF-8" standalone="no"?>
<!-- Created with Inkscape (http://www.inkscape.org/) -->

<svg
   xmlns:dc="http://purl.org/dc/elements/1.1/"
   xmlns:cc="http://creativecommons.org/ns#"
   xmlns:rdf="http://www.w3.org/1999/02/22-rdf-syntax-ns#"
   xmlns:svg="http://www.w3.org/2000/svg"
   xmlns="http://www.w3.org/2000/svg"
   xmlns:sodipodi="http://sodipodi.sourceforge.net/DTD/sodipodi-0.dtd"
   xmlns:inkscape="http://www.inkscape.org/namespaces/inkscape"
   id="svg7384"
   height="16"
   width="16"
   version="1.1"
   inkscape:version="0.48.4 r9939"
   sodipodi:docname="face-tired-symbolic.svg">
  <defs
     id="defs9" />
  <sodipodi:namedview
     pagecolor="#ffffff"
     bordercolor="#666666"
     borderopacity="1"
     objecttolerance="10"
     gridtolerance="10"
     guidetolerance="10"
     inkscape:pageopacity="0"
     inkscape:pageshadow="2"
     inkscape:window-width="640"
     inkscape:window-height="480"
     id="namedview7"
     showgrid="false"
     inkscape:zoom="14.75"
     inkscape:cx="8"
     inkscape:cy="8"
     inkscape:window-x="0"
     inkscape:window-y="26"
     inkscape:window-maximized="0"
     inkscape:current-layer="svg7384" />
  <metadata
     id="metadata90">
    <rdf:RDF>
      <cc:Work
         rdf:about="">
        <dc:format>image/svg+xml</dc:format>
        <dc:type
           rdf:resource="http://purl.org/dc/dcmitype/StillImage" />
        <dc:title>Gnome Symbolic Icon Theme</dc:title>
      </cc:Work>
    </rdf:RDF>
  </metadata>
  <title
     id="title9167">Gnome Symbolic Icon Theme</title>
  <g
     id="g71291"
     transform="translate(-601 -539)"
     style="fill:#a547b4;fill-opacity:1">
    <path
       id="path6411"
       style="fill:#a547b4;fill-opacity:1"
       d="m609 540c-3.866 0-7 3.134-7 7s3.134 7 7 7 7-3.134 7-7-3.134-7-7-7zm-1.375 5.75c0.18146-0.0534 0.34945 0.0626 0.375 0.25 0.0256 0.18743-0.0998 0.3841-0.28125 0.4375l-2.7812 0.8125c-0.18146 0.0534-0.34945-0.0313-0.375-0.21875-0.0256-0.18743 0.0998-0.3841 0.28125-0.4375l2.7812-0.84375zm2.625 0c0.0415-0.006 0.0796-0.0134 0.125 0l2.7812 0.84375c0.18146 0.0534 0.3068 0.25007 0.28125 0.4375-0.0256 0.18743-0.19354 0.27215-0.375 0.21875l-2.7812-0.8125c-0.18146-0.0534-0.3068-0.25007-0.28125-0.4375 0.0192-0.14057 0.12537-0.2334 0.25-0.25zm-4.8438 3.25h7.1875c0.2216 0 0.40625 0.223 0.40625 0.5s-0.18465 0.5-0.40625 0.5h-7.1875c-0.2216 0-0.40625-0.223-0.40625-0.5s0.18465-0.5 0.40625-0.5z" />
  </g>
</svg>
