<?xml version="1.0" encoding="UTF-8" standalone="no"?>
<!-- Created with Inkscape (http://www.inkscape.org/) -->

<svg
   xmlns:dc="http://purl.org/dc/elements/1.1/"
   xmlns:cc="http://creativecommons.org/ns#"
   xmlns:rdf="http://www.w3.org/1999/02/22-rdf-syntax-ns#"
   xmlns:svg="http://www.w3.org/2000/svg"
   xmlns="http://www.w3.org/2000/svg"
   xmlns:sodipodi="http://sodipodi.sourceforge.net/DTD/sodipodi-0.dtd"
   xmlns:inkscape="http://www.inkscape.org/namespaces/inkscape"
   id="svg7384"
   height="16"
   width="16"
   version="1.1"
   inkscape:version="0.48.4 r9939"
   sodipodi:docname="face-embarrassed-symbolic.svg">
  <defs
     id="defs9" />
  <sodipodi:namedview
     pagecolor="#ffffff"
     bordercolor="#666666"
     borderopacity="1"
     objecttolerance="10"
     gridtolerance="10"
     guidetolerance="10"
     inkscape:pageopacity="0"
     inkscape:pageshadow="2"
     inkscape:window-width="640"
     inkscape:window-height="480"
     id="namedview7"
     showgrid="false"
     inkscape:zoom="14.75"
     inkscape:cx="8"
     inkscape:cy="8"
     inkscape:window-x="0"
     inkscape:window-y="26"
     inkscape:window-maximized="0"
     inkscape:current-layer="svg7384" />
  <metadata
     id="metadata90">
    <rdf:RDF>
      <cc:Work
         rdf:about="">
        <dc:format>image/svg+xml</dc:format>
        <dc:type
           rdf:resource="http://purl.org/dc/dcmitype/StillImage" />
        <dc:title>Gnome Symbolic Icon Theme</dc:title>
      </cc:Work>
    </rdf:RDF>
  </metadata>
  <title
     id="title9167">Gnome Symbolic Icon Theme</title>
  <g
     id="g71291"
     transform="translate(-662 -539)"
     style="fill:#a547b4;fill-opacity:1">
    <path
       id="path7221"
       style="fill:#a547b4;fill-opacity:1"
       d="m670 540c-3.866 0-7 3.134-7 7s3.134 7 7 7 7-3.134 7-7-3.134-7-7-7zm-2.4688 5.1768c0.73437 0 1.4688 0.44603 1.4688 1.3125-1.5-0.33848-3.125 1.7329-3 0 0.0625-0.86647 0.79688-1.3125 1.5312-1.3125zm4.9375 0c0.73437 0 1.4688 0.44603 1.5312 1.3125 0.125 1.7329-1.5-0.33848-3 0 0-0.86647 0.73438-1.3125 1.4688-1.3125zm-5.9991 2.558c0.41493 0 0.75 0.33507 0.75 0.75s-0.33507 0.75-0.75 0.75-0.75-0.33507-0.75-0.75 0.33507-0.75 0.75-0.75zm7.0165 0c0.41493 0 0.75 0.33507 0.75 0.75s-0.33507 0.75-0.75 0.75-0.75-0.33507-0.75-0.75 0.33507-0.75 0.75-0.75zm-4.0902 2.2625h1.1719c0.20621 0 0.54688 0.223 0.54688 0.5s-0.34067 0.51562-0.54688 0.51562h-1.1719c-0.20621 0-0.48438-0.23862-0.48438-0.51562s0.27817-0.5 0.48438-0.5z" />
  </g>
</svg>
