<?xml version="1.0" encoding="UTF-8" standalone="no"?>
<!-- Created with Inkscape (http://www.inkscape.org/) -->

<svg
   xmlns:dc="http://purl.org/dc/elements/1.1/"
   xmlns:cc="http://creativecommons.org/ns#"
   xmlns:rdf="http://www.w3.org/1999/02/22-rdf-syntax-ns#"
   xmlns:svg="http://www.w3.org/2000/svg"
   xmlns="http://www.w3.org/2000/svg"
   xmlns:xlink="http://www.w3.org/1999/xlink"
   xmlns:sodipodi="http://sodipodi.sourceforge.net/DTD/sodipodi-0.dtd"
   xmlns:inkscape="http://www.inkscape.org/namespaces/inkscape"
   id="svg3082"
   height="48"
   width="48"
   version="1.1"
   inkscape:version="0.48.4 r9939"
   sodipodi:docname="view-fullscreen.svg">
  <metadata
     id="metadata53">
    <rdf:RDF>
      <cc:Work
         rdf:about="">
        <dc:format>image/svg+xml</dc:format>
        <dc:type
           rdf:resource="http://purl.org/dc/dcmitype/StillImage" />
        <dc:title></dc:title>
        <dc:creator>
          <cc:Agent>
            <dc:title>Joern Konopka</dc:title>
          </cc:Agent>
        </dc:creator>
        <cc:license
           rdf:resource="http://www.gnu.org/licenses/gpl.html" />
      </cc:Work>
    </rdf:RDF>
  </metadata>
  <sodipodi:namedview
     pagecolor="#ffffff"
     bordercolor="#666666"
     borderopacity="1"
     objecttolerance="10"
     gridtolerance="10"
     guidetolerance="10"
     inkscape:pageopacity="0"
     inkscape:pageshadow="2"
     inkscape:window-width="1366"
     inkscape:window-height="715"
     id="namedview51"
     showgrid="true"
     inkscape:zoom="5.8769531"
     inkscape:cx="47.4173"
     inkscape:cy="37.916947"
     inkscape:window-x="0"
     inkscape:window-y="26"
     inkscape:window-maximized="1"
     inkscape:current-layer="svg3082">
    <inkscape:grid
       type="xygrid"
       id="grid3030" />
  </sodipodi:namedview>
  <defs
     id="defs3084">
    <linearGradient
       id="linearGradient5060">
      <stop
         id="stop5062"
         offset="0" />
      <stop
         id="stop5064"
         style="stop-opacity:0"
         offset="1" />
    </linearGradient>
    <linearGradient
       id="linearGradient6388">
      <stop
         id="stop6390"
         style="stop-color:#a00"
         offset="0" />
      <stop
         id="stop6392"
         style="stop-color:#a00;stop-opacity:0"
         offset="1" />
    </linearGradient>
    <linearGradient
       id="linearGradient4168">
      <stop
         id="stop4170"
         style="stop-color:#f8cd70"
         offset="0" />
      <stop
         id="stop4172"
         style="stop-color:#cc9110"
         offset="1" />
    </linearGradient>
    <linearGradient
       id="linearGradient5527"
       y2="29.808"
       xlink:href="#linearGradient6388"
       gradientUnits="userSpaceOnUse"
       x2="14.839"
       y1="39"
       x1="6" />
    <linearGradient
       id="linearGradient5530"
       y2="30.161"
       xlink:href="#linearGradient6388"
       gradientUnits="userSpaceOnUse"
       x2="32.984"
       y1="39"
       x1="42" />
    <linearGradient
       id="linearGradient5533"
       y2="23.281"
       xlink:href="#linearGradient6388"
       gradientUnits="userSpaceOnUse"
       x2="15.104"
       y1="14"
       x1="6" />
    <linearGradient
       id="linearGradient5536"
       y2="22.839"
       xlink:href="#linearGradient6388"
       gradientUnits="userSpaceOnUse"
       x2="33.25"
       y1="14"
       x1="42" />
    <radialGradient
       id="radialGradient5539"
       xlink:href="#linearGradient4168"
       gradientUnits="userSpaceOnUse"
       cy="9.9662"
       cx="40.128"
       gradientTransform="matrix(1.8725,2.2105e-6,-2.2597e-6,1.9142,-42.642,-9.5775)"
       r="1.0607" />
    <radialGradient
       id="radialGradient5542"
       xlink:href="#linearGradient4168"
       gradientUnits="userSpaceOnUse"
       cy="9.9662"
       cx="40.128"
       gradientTransform="matrix(1.8725,2.2597e-6,-2.2597e-6,1.8725,-38.642,-9.1622)"
       r="1.0607" />
    <radialGradient
       id="radialGradient5545"
       xlink:href="#linearGradient4168"
       gradientUnits="userSpaceOnUse"
       cy="9.9662"
       cx="40.128"
       gradientTransform="matrix(1.8725,-1.5978e-7,1.5267e-7,1.7892,-34.642,-8.3316)"
       r="1.0607" />
    <linearGradient
       id="linearGradient5548"
       y2="40"
       gradientUnits="userSpaceOnUse"
       x2="24"
       y1="13"
       x1="24">
      <stop
         id="stop6459"
         style="stop-color:#fff;stop-opacity:.94118"
         offset="0" />
      <stop
         id="stop6461"
         style="stop-color:#fff;stop-opacity:.70588"
         offset="1" />
    </linearGradient>
    <linearGradient
       id="linearGradient5551"
       y2="15.044"
       gradientUnits="userSpaceOnUse"
       x2="16.075"
       gradientTransform="matrix(1.2581,0,0,1.1724,-7.4515,-4.6378)"
       y1="9.0735"
       x1="16.034">
      <stop
         id="stop3692"
         style="stop-color:#fff"
         offset="0" />
      <stop
         id="stop3694"
         style="stop-color:#fff;stop-opacity:.46875"
         offset="1" />
    </linearGradient>
    <linearGradient
       id="linearGradient5554"
       y2="39.924"
       gradientUnits="userSpaceOnUse"
       x2="21.78"
       gradientTransform="matrix(1.2424,0,0,1.1803,-7.0605,-5.1228)"
       y1="8.5763"
       x1="21.866">
      <stop
         id="stop2783"
         style="stop-color:#505050"
         offset="0" />
      <stop
         id="stop6301"
         style="stop-color:#6e6e6e"
         offset=".13216" />
      <stop
         id="stop2785"
         style="stop-color:#8c8c8c"
         offset="1" />
    </linearGradient>
    <linearGradient
       id="linearGradient6658"
       y2="609.51"
       gradientUnits="userSpaceOnUse"
       x2="302.86"
       gradientTransform="matrix(2.7744,0,0,1.9697,-1892.2,-872.89)"
       y1="366.65"
       x1="302.86">
      <stop
         id="stop5050"
         style="stop-opacity:0"
         offset="0" />
      <stop
         id="stop5056"
         offset=".5" />
      <stop
         id="stop5052"
         style="stop-opacity:0"
         offset="1" />
    </linearGradient>
    <radialGradient
       id="radialGradient6660"
       xlink:href="#linearGradient5060"
       gradientUnits="userSpaceOnUse"
       cy="486.65"
       cx="605.71"
       gradientTransform="matrix(2.7744,0,0,1.9697,-1891.6,-872.89)"
       r="117.14" />
    <radialGradient
       id="radialGradient6662"
       xlink:href="#linearGradient5060"
       gradientUnits="userSpaceOnUse"
       cy="486.65"
       cx="605.71"
       gradientTransform="matrix(-2.7744,0,0,1.9697,112.76,-872.89)"
       r="117.14" />
  </defs>
  <path
     style="font-size:medium;font-style:normal;font-variant:normal;font-weight:normal;font-stretch:normal;text-indent:0;text-align:start;text-decoration:none;line-height:normal;letter-spacing:normal;word-spacing:normal;text-transform:none;direction:ltr;block-progression:tb;writing-mode:lr-tb;text-anchor:start;baseline-shift:baseline;opacity:1;color:#000000;fill:#4b4b4b;fill-opacity:1;stroke:none;stroke-width:6;marker:none;visibility:visible;display:inline;overflow:visible;enable-background:accumulate;font-family:Sans;-inkscape-font-specification:Sans"
     d="M 6.78125 23.84375 A 3.0052039 3.0052039 0 0 0 4 26.84375 L 4 40.75 L 4 41 A 3.0052038 3.0052038 0 0 0 4 41.03125 A 3.0003 3.0003 0 0 0 4 41.21875 A 3.0052038 3.0052038 0 0 0 4.03125 41.46875 A 3.0003 3.0003 0 0 0 4.03125 41.53125 A 3.0052038 3.0052038 0 0 0 4.0625 41.625 A 3.0003 3.0003 0 0 0 4.125 41.8125 A 3.0052038 3.0052038 0 0 0 4.15625 41.9375 A 3.0003 3.0003 0 0 0 4.21875 42.09375 A 3.0052038 3.0052038 0 0 0 4.34375 42.375 A 3.0052038 3.0052038 0 0 0 4.4375 42.59375 A 3.0003 3.0003 0 0 0 4.5 42.65625 A 3.0052038 3.0052038 0 0 0 4.53125 42.71875 A 3.0003 3.0003 0 0 0 4.65625 42.875 A 3.0052038 3.0052038 0 0 0 4.71875 42.96875 A 3.0003 3.0003 0 0 0 4.84375 43.09375 A 3.0052038 3.0052038 0 0 0 4.9375 43.1875 A 3.0003 3.0003 0 0 0 5.3125 43.46875 A 3.0052038 3.0052038 0 0 0 5.5625 43.625 A 3.0052038 3.0052038 0 0 0 5.6875 43.6875 A 3.0003 3.0003 0 0 0 5.84375 43.75 A 3.0052038 3.0052038 0 0 0 5.9375 43.8125 A 3.0003 3.0003 0 0 0 6.40625 43.9375 A 3.0052038 3.0052038 0 0 0 6.53125 43.96875 A 3.0003 3.0003 0 0 0 6.71875 44 A 3.0052038 3.0052038 0 0 0 6.84375 44 A 3.0003 3.0003 0 0 0 7 44 A 3.0052038 3.0052038 0 0 0 7.125 44 L 21.15625 44 A 3.0003 3.0003 0 0 0 23.25 43.1875 A 3.0003 3.0003 0 0 0 21.15625 38 L 14.25 38 L 20.125 32.125 A 3.0003 3.0003 0 0 0 17.9375 26.96875 A 3.0003 3.0003 0 0 0 15.875 27.875 L 10 33.75 L 10 26.84375 A 3.0052039 3.0052039 0 0 0 6.78125 23.84375 z "
     id="path27" />
  <path
     inkscape:connector-curvature="0"
     style="font-size:medium;font-style:normal;font-variant:normal;font-weight:normal;font-stretch:normal;text-indent:0;text-align:start;text-decoration:none;line-height:normal;letter-spacing:normal;word-spacing:normal;text-transform:none;direction:ltr;block-progression:tb;writing-mode:lr-tb;text-anchor:start;baseline-shift:baseline;opacity:1;color:#000000;fill:#4b4b4b;fill-opacity:1;stroke:none;stroke-width:6;marker:none;visibility:visible;display:inline;overflow:visible;enable-background:accumulate;font-family:Sans;-inkscape-font-specification:Sans"
     d="M 41.24031,23.998487 A 2.9819077,2.9807802 0 0 0 44,21.022869 L 44,7.2296418 44,6.9816736 a 2.9819076,2.9807801 0 0 0 0,-0.030996 2.9770419,2.9759162 0 0 0 0,-0.1859762 2.9819076,2.9807801 0 0 0 -0.03101,-0.2479682 2.9770419,2.9759162 0 0 0 0,-0.061992 A 2.9819076,2.9807801 0 0 0 43.93798,6.3617531 2.9770419,2.9759162 0 0 0 43.87596,6.1757769 2.9819076,2.9807801 0 0 0 43.84495,6.0517928 2.9770419,2.9759162 0 0 0 43.78294,5.8968127 2.9819076,2.9807801 0 0 0 43.658909,5.6178484 2.9819076,2.9807801 0 0 0 43.565889,5.4008762 2.9770419,2.9759162 0 0 0 43.503869,5.3388842 2.9819076,2.9807801 0 0 0 43.472859,5.2768921 2.9770419,2.9759162 0 0 0 43.348828,5.121912 2.9819076,2.9807801 0 0 0 43.286808,5.0289239 2.9770419,2.9759162 0 0 0 43.162777,4.9049398 2.9819076,2.9807801 0 0 0 43.069757,4.8119517 2.9770419,2.9759162 0 0 0 42.697664,4.5329875 2.9819076,2.9807801 0 0 0 42.449602,4.3780073 2.9819076,2.9807801 0 0 0 42.325571,4.3160153 2.9770419,2.9759162 0 0 0 42.170533,4.2540232 2.9819076,2.9807801 0 0 0 42.077513,4.1920312 2.9770419,2.9759162 0 0 0 41.612397,4.0680471 2.9819076,2.9807801 0 0 0 41.488366,4.037051 2.9770419,2.9759162 0 0 0 41.30232,4.006055 a 2.9819076,2.9807801 0 0 0 -0.124031,0 2.9770419,2.9759162 0 0 0 -0.155039,0 2.9819076,2.9807801 0 0 0 -0.124031,0 l -13.922481,0 a 2.9770419,2.9759162 0 0 0 -2.077519,0.8058967 2.9770419,2.9759162 0 0 0 2.077519,5.1453355 l 6.852713,0 L 28,15.78454 A 2.9770419,2.9759162 0 0 0 30.170543,20.898885 2.9770419,2.9759162 0 0 0 32.217054,20 l 5.829458,-5.827253 0,6.850122 a 2.9819077,2.9807802 0 0 0 3.193798,2.975618 z"
     id="path27-6" />
</svg>
